<svg xmlns="http://www.w3.org/2000/svg" version="1.1" xmlns:xlink="http://www.w3.org/1999/xlink" xmlns:svgjs="http://svgjs.dev/svgjs" width="2418" height="1920" preserveAspectRatio="none" viewBox="0 0 2418 1920"><g mask="url(&quot;#SvgjsMask1069&quot;)" fill="none"><rect width="2418" height="1920" x="0" y="0" fill="#0e2a47"></rect><path d="M252 130L251 1471" stroke-width="10" stroke="url(&quot;#SvgjsLinearGradient1070&quot;)" stroke-linecap="round" class="Down"></path><path d="M1895 819L1894 198" stroke-width="8" stroke="url(&quot;#SvgjsLinearGradient1071&quot;)" stroke-linecap="round" class="Up"></path><path d="M5 1905L4 2932" stroke-width="6" stroke="url(&quot;#SvgjsLinearGradient1070&quot;)" stroke-linecap="round" class="Down"></path><path d="M826 1894L825 3212" stroke-width="8" stroke="url(&quot;#SvgjsLinearGradient1070&quot;)" stroke-linecap="round" class="Down"></path><path d="M1060 1688L1059 344" stroke-width="8" stroke="url(&quot;#SvgjsLinearGradient1070&quot;)" stroke-linecap="round" class="Down"></path><path d="M2150 770L2149 1783" stroke-width="8" stroke="url(&quot;#SvgjsLinearGradient1070&quot;)" stroke-linecap="round" class="Down"></path><path d="M459 531L458 -148" stroke-width="10" stroke="url(&quot;#SvgjsLinearGradient1071&quot;)" stroke-linecap="round" class="Up"></path><path d="M137 66L136 -959" stroke-width="10" stroke="url(&quot;#SvgjsLinearGradient1070&quot;)" stroke-linecap="round" class="Down"></path><path d="M2394 161L2393 -501" stroke-width="8" stroke="url(&quot;#SvgjsLinearGradient1071&quot;)" stroke-linecap="round" class="Up"></path><path d="M1565 239L1564 -384" stroke-width="8" stroke="url(&quot;#SvgjsLinearGradient1071&quot;)" stroke-linecap="round" class="Up"></path><path d="M234 427L233 1557" stroke-width="6" stroke="url(&quot;#SvgjsLinearGradient1071&quot;)" stroke-linecap="round" class="Up"></path><path d="M958 866L957 -320" stroke-width="6" stroke="url(&quot;#SvgjsLinearGradient1070&quot;)" stroke-linecap="round" class="Down"></path><path d="M2003 697L2002 -491" stroke-width="8" stroke="url(&quot;#SvgjsLinearGradient1070&quot;)" stroke-linecap="round" class="Down"></path><path d="M838 1318L837 2291" stroke-width="6" stroke="url(&quot;#SvgjsLinearGradient1070&quot;)" stroke-linecap="round" class="Down"></path><path d="M902 952L901 1662" stroke-width="10" stroke="url(&quot;#SvgjsLinearGradient1071&quot;)" stroke-linecap="round" class="Up"></path><path d="M2356 1751L2355 2623" stroke-width="6" stroke="url(&quot;#SvgjsLinearGradient1070&quot;)" stroke-linecap="round" class="Down"></path><path d="M2161 1468L2160 116" stroke-width="6" stroke="url(&quot;#SvgjsLinearGradient1071&quot;)" stroke-linecap="round" class="Up"></path><path d="M547 1624L546 601" stroke-width="10" stroke="url(&quot;#SvgjsLinearGradient1071&quot;)" stroke-linecap="round" class="Up"></path><path d="M2116 1421L2115 358" stroke-width="6" stroke="url(&quot;#SvgjsLinearGradient1070&quot;)" stroke-linecap="round" class="Down"></path><path d="M292 881L291 2157" stroke-width="6" stroke="url(&quot;#SvgjsLinearGradient1070&quot;)" stroke-linecap="round" class="Down"></path><path d="M27 1248L26 336" stroke-width="6" stroke="url(&quot;#SvgjsLinearGradient1071&quot;)" stroke-linecap="round" class="Up"></path><path d="M437 422L436 -384" stroke-width="8" stroke="url(&quot;#SvgjsLinearGradient1071&quot;)" stroke-linecap="round" class="Up"></path><path d="M1406 727L1405 2091" stroke-width="6" stroke="url(&quot;#SvgjsLinearGradient1071&quot;)" stroke-linecap="round" class="Up"></path><path d="M264 1629L263 1102" stroke-width="8" stroke="url(&quot;#SvgjsLinearGradient1071&quot;)" stroke-linecap="round" class="Up"></path><path d="M398 1264L397 1946" stroke-width="6" stroke="url(&quot;#SvgjsLinearGradient1070&quot;)" stroke-linecap="round" class="Down"></path><path d="M1933 28L1932 934" stroke-width="8" stroke="url(&quot;#SvgjsLinearGradient1071&quot;)" stroke-linecap="round" class="Up"></path><path d="M340 1476L339 2427" stroke-width="6" stroke="url(&quot;#SvgjsLinearGradient1071&quot;)" stroke-linecap="round" class="Up"></path><path d="M703 1248L702 -141" stroke-width="8" stroke="url(&quot;#SvgjsLinearGradient1070&quot;)" stroke-linecap="round" class="Down"></path><path d="M1346 1533L1345 240" stroke-width="8" stroke="url(&quot;#SvgjsLinearGradient1070&quot;)" stroke-linecap="round" class="Down"></path><path d="M386 452L385 1804" stroke-width="6" stroke="url(&quot;#SvgjsLinearGradient1071&quot;)" stroke-linecap="round" class="Up"></path><path d="M896 750L895 -660" stroke-width="10" stroke="url(&quot;#SvgjsLinearGradient1070&quot;)" stroke-linecap="round" class="Down"></path><path d="M281 453L280 1726" stroke-width="6" stroke="url(&quot;#SvgjsLinearGradient1071&quot;)" stroke-linecap="round" class="Up"></path><path d="M2193 713L2192 -65" stroke-width="10" stroke="url(&quot;#SvgjsLinearGradient1071&quot;)" stroke-linecap="round" class="Up"></path><path d="M177 186L176 990" stroke-width="10" stroke="url(&quot;#SvgjsLinearGradient1070&quot;)" stroke-linecap="round" class="Down"></path><path d="M943 589L942 -467" stroke-width="6" stroke="url(&quot;#SvgjsLinearGradient1071&quot;)" stroke-linecap="round" class="Up"></path><path d="M1421 1620L1420 2216" stroke-width="8" stroke="url(&quot;#SvgjsLinearGradient1071&quot;)" stroke-linecap="round" class="Up"></path><path d="M473 905L472 271" stroke-width="8" stroke="url(&quot;#SvgjsLinearGradient1070&quot;)" stroke-linecap="round" class="Down"></path><path d="M2132 567L2131 1949" stroke-width="10" stroke="url(&quot;#SvgjsLinearGradient1071&quot;)" stroke-linecap="round" class="Up"></path><path d="M2062 956L2061 403" stroke-width="8" stroke="url(&quot;#SvgjsLinearGradient1071&quot;)" stroke-linecap="round" class="Up"></path><path d="M2183 1882L2182 1302" stroke-width="10" stroke="url(&quot;#SvgjsLinearGradient1070&quot;)" stroke-linecap="round" class="Down"></path><path d="M570 1533L569 2741" stroke-width="8" stroke="url(&quot;#SvgjsLinearGradient1071&quot;)" stroke-linecap="round" class="Up"></path><path d="M212 1155L211 627" stroke-width="6" stroke="url(&quot;#SvgjsLinearGradient1071&quot;)" stroke-linecap="round" class="Up"></path><path d="M948 370L947 -1023" stroke-width="8" stroke="url(&quot;#SvgjsLinearGradient1071&quot;)" stroke-linecap="round" class="Up"></path><path d="M503 1743L502 600" stroke-width="8" stroke="url(&quot;#SvgjsLinearGradient1070&quot;)" stroke-linecap="round" class="Down"></path><path d="M2363 1411L2362 378" stroke-width="10" stroke="url(&quot;#SvgjsLinearGradient1071&quot;)" stroke-linecap="round" class="Up"></path><path d="M1684 598L1683 1154" stroke-width="6" stroke="url(&quot;#SvgjsLinearGradient1071&quot;)" stroke-linecap="round" class="Up"></path><path d="M803 1201L802 276" stroke-width="10" stroke="url(&quot;#SvgjsLinearGradient1070&quot;)" stroke-linecap="round" class="Down"></path><path d="M990 367L989 966" stroke-width="6" stroke="url(&quot;#SvgjsLinearGradient1070&quot;)" stroke-linecap="round" class="Down"></path><path d="M926 498L925 -856" stroke-width="10" stroke="url(&quot;#SvgjsLinearGradient1070&quot;)" stroke-linecap="round" class="Down"></path><path d="M161 790L160 1993" stroke-width="10" stroke="url(&quot;#SvgjsLinearGradient1071&quot;)" stroke-linecap="round" class="Up"></path><path d="M332 374L331 1343" stroke-width="6" stroke="url(&quot;#SvgjsLinearGradient1071&quot;)" stroke-linecap="round" class="Up"></path><path d="M117 1532L116 993" stroke-width="10" stroke="url(&quot;#SvgjsLinearGradient1071&quot;)" stroke-linecap="round" class="Up"></path><path d="M413 199L412 1010" stroke-width="6" stroke="url(&quot;#SvgjsLinearGradient1070&quot;)" stroke-linecap="round" class="Down"></path><path d="M2080 1360L2079 2731" stroke-width="10" stroke="url(&quot;#SvgjsLinearGradient1071&quot;)" stroke-linecap="round" class="Up"></path><path d="M1131 594L1130 -715" stroke-width="10" stroke="url(&quot;#SvgjsLinearGradient1070&quot;)" stroke-linecap="round" class="Down"></path><path d="M679 1723L678 2902" stroke-width="10" stroke="url(&quot;#SvgjsLinearGradient1070&quot;)" stroke-linecap="round" class="Down"></path><path d="M1855 669L1854 2033" stroke-width="10" stroke="url(&quot;#SvgjsLinearGradient1071&quot;)" stroke-linecap="round" class="Up"></path><path d="M220 1882L219 3074" stroke-width="10" stroke="url(&quot;#SvgjsLinearGradient1071&quot;)" stroke-linecap="round" class="Up"></path><path d="M1451 212L1450 839" stroke-width="8" stroke="url(&quot;#SvgjsLinearGradient1070&quot;)" stroke-linecap="round" class="Down"></path><path d="M1100 1569L1099 938" stroke-width="8" stroke="url(&quot;#SvgjsLinearGradient1070&quot;)" stroke-linecap="round" class="Down"></path><path d="M1469 292L1468 1683" stroke-width="10" stroke="url(&quot;#SvgjsLinearGradient1071&quot;)" stroke-linecap="round" class="Up"></path></g><defs><mask id="SvgjsMask1069"><rect width="2418" height="1920" fill="#ffffff"></rect></mask><linearGradient x1="0%" y1="0%" x2="0%" y2="100%" id="SvgjsLinearGradient1070"><stop stop-color="rgba(28, 83, 142, 0)" offset="0"></stop><stop stop-color="#1c538e" offset="1"></stop></linearGradient><linearGradient x1="0%" y1="100%" x2="0%" y2="0%" id="SvgjsLinearGradient1071"><stop stop-color="rgba(28, 83, 142, 0)" offset="0"></stop><stop stop-color="#1c538e" offset="1"></stop></linearGradient></defs></svg>